# xmcd
#
# Track frame offsets:
#	182
#	13235
#	26240
#	36590
#	46162
#	56125
#	66490
#	78442
#	88410
#	97241
#	110605
#	120040
#	137870
#	150177
#	163867
#	174977
#	189225
#	198875
#
# Disc length: 2816
#
# Revision: 3
# Processed by: cddbd v1.5.1PL0 Copyright (c) Steve Scherf et al.
# Submitted via: CDex 1.50
# Normalized: r2:DSETVAR1
#
DISCID=f80afe12
DTITLE=Various Artist - 50 years of Country - Disc 3 - 1962 - 1972
DYEAR=2000
DGENRE=Country
TTITLE0=Willy Nelson - Crazy - 1962
TTITLE1=Johnny Tillotson - Send me the pillow that you dream on - 1962
TTITLE2=Rose Maddox - Rollin' in my sweet baby's arms - 1962
TTITLE3=George Jones - The race is on - 1964
TTITLE4=Jean Shepard - Second Fiddle - 1964
TTITLE5=Jody Miller - Queen of the house - 1965
TTITLE6=Del Reeves - Girl on the billboard - 1965
TTITLE7=Kay Adams - Little pink mack - 1966
TTITLE8=Wanda Jackson - Jambalaya - 1966
TTITLE9=Tammy Wynette - D.I.V.O.R.C.E. - 1968
TTITLE10=Glen Campbell and Bobbie Gentry - Let it be me - 1968
TTITLE11=Bobby Goldsboro - Honey - 1968
TTITLE12=Merle Haggard and The Strangers - Okie from Muskogee - 1969
TTITLE13=Billie Jo Spears - Mr. Walker, it's all over - 1969
TTITLE14=Susan Raye - Willy Jones - 1970
TTITLE15=Red Simpson - I'm a truck - 1971
TTITLE16=Freddie Hart - My hang up is you - 1972
TTITLE17=Asleep at the wheel - I've been everywhere - 1972
EXTD=YEAR: 2000
EXTT0=
EXTT1=
EXTT2=
EXTT3=
EXTT4=
EXTT5=
EXTT6=
EXTT7=
EXTT8=
EXTT9=
EXTT10=
EXTT11=
EXTT12=
EXTT13=
EXTT14=
EXTT15=
EXTT16=
EXTT17=
PLAYORDER=
